<?xml version="1.0" encoding="utf-8"?>
<!-- Svg Vector Icons : http://www.onlinewebfonts.com/icon -->
<!DOCTYPE svg PUBLIC "-//W3C//DTD SVG 1.1//EN" "http://www.w3.org/Graphics/SVG/1.1/DTD/svg11.dtd">
<svg version="1.1" xmlns="http://www.w3.org/2000/svg" xmlns:xlink="http://www.w3.org/1999/xlink" x="0px" y="0px" viewBox="0 0 1000 1000" enable-background="new 0 0 1000 1000" xml:space="preserve">
<metadata> Svg Vector Icons : http://www.onlinewebfonts.com/icon </metadata>
<g><path fill="#ffffff" d="M524.5,806.3c-1,0-2.1-0.1-3.1-0.3c-9.9-1.5-17.3-10.1-17.3-20.2V324.1l-123.8,322c-3.5,9.2-13.2,14.5-22.8,12.8c-9.7-1.8-16.7-10.2-16.7-20.1V441.8l-30.6,63.1c-3.4,7-10.5,11.5-18.4,11.5H30.4c-11.3,0-20.4-9.2-20.4-20.4c0-11.3,9.1-20.4,20.4-20.4H279l63.8-131.4c4.2-8.6,13.6-13.1,23-11c9.3,2.1,15.8,10.4,15.8,19.9v175.9l123.9-322c3.5-9.2,13.1-14.6,22.8-12.8c9.7,1.8,16.7,10.2,16.7,20.1V654l123.5-388.9c3-9.6,12.7-15.5,22.6-14c10,1.5,17.3,10.1,17.3,20.2V634l124.7-249.3c4.2-8.5,13.7-12.9,23-10.7c9.2,2.2,15.7,10.4,15.7,19.9v89.8h98c11.3,0,20.4,9.2,20.4,20.4c0,11.3-9.1,20.4-20.4,20.4H851.2c-11.3,0-20.4-9.2-20.4-20.4v-23.8L706.1,729.6c-4.2,8.5-13.7,12.9-23,10.7c-9.2-2.2-15.7-10.4-15.7-19.9V403.1L544,792C541.2,800.6,533.3,806.3,524.5,806.3z"/></g>
</svg>