<?xml version="1.0"?>
<svg xmlns="http://www.w3.org/2000/svg" version="1" viewBox="0 0 24 24" enable-background="new 0 0 24 24">
    <path fill="#ffffff" style="text-indent:0;text-align:start;line-height:normal;text-transform:none;block-progression:tb;-inkscape-font-specification:Bitstream Vera Sans" d="M 8 2 L 8 22 L 10 22 L 10 2 L 8 2 z M 20 2 L 20 22 L 22 22 L 22 2 L 20 2 z M 5 6 L 5 18 L 7 18 L 7 6 L 5 6 z M 11 6 L 11 18 L 13 18 L 13 6 L 11 6 z M 17 6 L 17 18 L 19 18 L 19 6 L 17 6 z M 2 9 L 2 15 L 4 15 L 4 9 L 2 9 z M 14 9 L 14 15 L 16 15 L 16 9 L 14 9 z"/>
</svg>
